HIERARCHY
ROOT Hips
{
	OFFSET 52.501801 -24.354313 86.469391
	CHANNELS 6 Xposition Yposition Zposition Xrotation Yrotation Zrotation
	JOINT spine
	{
		OFFSET 0.000000 -0.393702 6.846367
		CHANNELS 3 Xrotation Yrotation Zrotation
		JOINT spine1
		{
			OFFSET 0.000000 -0.000002 9.496208
			CHANNELS 3 Xrotation Yrotation Zrotation
			JOINT spine2
			{
				OFFSET 0.000000 -0.000002 9.099091
				CHANNELS 3 Xrotation Yrotation Zrotation
				JOINT Neck
				{
					OFFSET 0.000000 -1.113783 23.361206
					CHANNELS 3 Xrotation Yrotation Zrotation
					JOINT Head
					{
						OFFSET 0.000000 0.000000 7.058014
						CHANNELS 3 Xrotation Yrotation Zrotation
						End Site
						{
							OFFSET 0.000000 5.634186 17.084396
						}
					}
				}
				JOINT RightShoulder
				{
					OFFSET -3.831360 0.533491 9.826309
					CHANNELS 3 Xrotation Yrotation Zrotation
					JOINT RightArm
					{
						OFFSET 0.000000 -0.000002 12.888107
						CHANNELS 3 Xrotation Yrotation Zrotation
						JOINT RightArmRoll
						{
							OFFSET 0.000000 -0.000002 6.506165
							CHANNELS 3 Xrotation Yrotation Zrotation
							JOINT RightForeArm
							{
								OFFSET 0.000000 -0.000004 18.950104
								CHANNELS 3 Xrotation Yrotation Zrotation
								JOINT RightForeArmRoll
								{
									OFFSET 0.000000 0.000000 7.300934
									CHANNELS 3 Xrotation Yrotation Zrotation
									JOINT RightHand
									{
										OFFSET 0.000000 -0.000004 14.651398
										CHANNELS 3 Xrotation Yrotation Zrotation
										End Site
										{
											OFFSET 0.000000 0.000000 0.100006
										}
									}
								}
							}
						}
					}
				}
				JOINT LeftShoulder
				{
					OFFSET 3.831360 0.533491 9.826309
					CHANNELS 3 Xrotation Yrotation Zrotation
					JOINT LeftArm
					{
						OFFSET 0.000000 -0.000002 12.888107
						CHANNELS 3 Xrotation Yrotation Zrotation
						JOINT LeftArmRoll
						{
							OFFSET 0.000000 -0.000002 6.506165
							CHANNELS 3 Xrotation Yrotation Zrotation
							JOINT LeftForeArm
							{
								OFFSET 0.000000 -0.000004 18.950104
								CHANNELS 3 Xrotation Yrotation Zrotation
								JOINT LeftForeArmRoll
								{
									OFFSET 0.000000 0.000000 7.300934
									CHANNELS 3 Xrotation Yrotation Zrotation
									JOINT LeftHand
									{
										OFFSET 0.000000 -0.000004 14.651398
										CHANNELS 3 Xrotation Yrotation Zrotation
										End Site
										{
											OFFSET 0.000000 0.000000 0.100006
										}
									}
								}
							}
						}
					}
				}
			}
		}
	}
	JOINT RightUpLeg
	{
		OFFSET -6.068371 0.933477 -1.112778
		CHANNELS 3 Xrotation Yrotation Zrotation
		JOINT RightUpLegRoll
		{
			OFFSET 0.000000 -0.000004 17.179604
			CHANNELS 3 Xrotation Yrotation Zrotation
			JOINT RightLeg
			{
				OFFSET 0.000000 0.000004 -21.274300
				CHANNELS 3 Xrotation Yrotation Zrotation
				JOINT RightLegRoll
				{
					OFFSET 0.000000 -0.000004 21.343903
					CHANNELS 3 Xrotation Yrotation Zrotation
					JOINT RightFoot
					{
						OFFSET 0.000000 -0.000002 17.765198
						CHANNELS 3 Xrotation Yrotation Zrotation
						JOINT RightToeBase
						{
							OFFSET 0.000000 -0.000004 14.850815
							CHANNELS 3 Xrotation Yrotation Zrotation
							End Site
							{
								OFFSET 0.006294 0.829004 7.192139
							}
						}
					}
				}
			}
		}
	}
	JOINT LeftUpLeg
	{
		OFFSET 6.068371 0.933477 -1.112778
		CHANNELS 3 Xrotation Yrotation Zrotation
		JOINT LeftUpLegRoll
		{
			OFFSET 0.000000 -0.000004 17.179703
			CHANNELS 3 Xrotation Yrotation Zrotation
			JOINT LeftLeg
			{
				OFFSET 0.000000 -0.000004 21.274200
				CHANNELS 3 Xrotation Yrotation Zrotation
				JOINT LeftLegRoll
				{
					OFFSET 0.000000 -0.000002 21.541214
					CHANNELS 3 Xrotation Yrotation Zrotation
					JOINT LeftFoot
					{
						OFFSET 0.000000 -0.000004 17.567902
						CHANNELS 3 Xrotation Yrotation Zrotation
						JOINT LeftToeBase
						{
							OFFSET 0.000000 -0.000002 14.850800
							CHANNELS 3 Xrotation Yrotation Zrotation
							End Site
							{
								OFFSET -0.028210 0.829002 7.192139
							}
						}
					}
				}
			}
		}
	}
}
MOTION
Frames: 5
Frame Time: 0.041667
49.708595 -9.623667 86.563210 -0.699905 -1.452794 1.754693 -1.703307 -1.186996 1.017394 0.617510 -2.395752 2.011654 2.262749 -2.371552 2.040270 6.937913 15.819611 -5.172446 9.021520 -13.144183 -5.068124 -12.791437 -52.587218 -14.824646 -60.222563 -111.949813 -34.470151 -0.000000 0.000001 0.000000 4.845343 -12.389644 0.001023 -0.000002 0.000007 -3.009739 -5.000228 -7.998724 0.000169 -21.643066 71.093315 25.335873 -75.796986 114.781356 46.025394 -0.000009 0.000006 0.000010 8.752249 12.255455 -1.263727 0.000004 -0.000039 3.007150 -5.000192 7.998716 -0.000169 -15.840582 -178.082621 -2.074213 -179.999991 -0.000005 -1.152002 154.440030 -3.020988 -1.288847 0.000001 -0.000005 0.674776 73.608921 7.234092 0.772132 25.456933 -7.345401 0.000005 -11.923196 178.468745 1.240646 -0.000003 -0.000005 -0.933646 -24.021577 1.096197 1.181195 -0.000004 -0.000003 -0.493315 75.553155 -5.864294 -4.789207 25.456935 7.347068 -0.000007 
49.725899 -9.597520 86.554298 -0.685644 -1.455457 1.756582 -1.703434 -1.187016 1.018061 0.617265 -2.395812 2.013045 2.262499 -2.371602 2.041652 6.922563 15.828349 -5.170214 9.025458 -13.149188 -5.067893 -12.783291 -52.588512 -14.814667 -60.213124 -111.989120 -34.476387 -0.000003 0.000000 -0.000003 4.820447 -12.396666 -0.000099 -0.000002 0.000007 -3.009740 -5.000229 -7.998724 0.000168 -21.653633 71.095528 25.347568 -75.779883 114.793733 46.007522 -0.000010 0.000003 0.000009 8.735995 12.254188 -1.262551 0.000002 -0.000038 3.007150 -5.000193 7.998712 -0.000171 -15.857640 -178.077006 -2.072941 -179.999991 -0.000005 -1.151005 154.441137 -3.024629 -1.288518 0.000000 -0.000005 0.674848 73.605185 7.234814 0.770477 25.456933 -7.345402 0.000005 -11.934463 178.474687 1.243483 -0.000004 -0.000004 -0.933629 -24.017694 1.098843 1.180920 -0.000003 -0.000003 -0.493315 75.552554 -5.865252 -4.785162 25.456933 7.347070 -0.000008 
49.721100 -9.598894 86.549515 -0.671249 -1.458062 1.758587 -1.703626 -1.187086 1.018645 0.616904 -2.395942 2.014290 2.262139 -2.371713 2.042901 6.906803 15.837597 -5.167742 9.029777 -13.154572 -5.067452 -12.774732 -52.589250 -14.804162 -60.202168 -112.029261 -34.481073 -0.000004 -0.000001 -0.000002 4.796041 -12.403771 -0.001217 -0.000004 0.000006 -3.009742 -5.000230 -7.998723 0.000170 -21.665556 71.098103 25.360714 -75.763812 114.806628 45.991403 -0.000010 0.000002 0.000010 8.720605 12.253296 -1.261457 0.000001 -0.000037 3.007145 -5.000189 7.998716 -0.000167 -15.875187 -178.073332 -2.073854 -179.999991 -0.000005 -1.149994 154.441915 -3.025549 -1.287896 0.000002 -0.000005 0.675125 73.601251 7.235114 0.770074 25.456931 -7.345403 0.000005 -11.946143 178.479632 1.246339 -0.000003 -0.000004 -0.933590 -24.014119 1.101651 1.180648 -0.000005 -0.000003 -0.493315 75.552083 -5.866219 -4.781108 25.456931 7.347069 -0.000008 
49.701500 -9.644765 86.561905 -0.656763 -1.460636 1.760667 -1.703843 -1.187195 1.019157 0.616463 -2.396123 2.015433 2.261699 -2.371873 2.044039 6.890754 15.847244 -5.165104 9.034360 -13.160146 -5.066864 -12.765904 -52.589711 -14.793322 -60.189280 -112.069990 -34.483829 -0.000002 -0.000002 -0.000002 4.771992 -12.410778 -0.002357 -0.000004 0.000006 -3.009740 -5.000228 -7.998724 0.000169 -21.678387 71.100883 25.374877 -75.748423 114.819851 45.976472 -0.000010 0.000003 0.000013 8.705804 12.252675 -1.260413 0.000000 -0.000038 3.007151 -5.000196 7.998711 -0.000166 -15.893220 -178.070627 -2.076430 -179.999991 -0.000005 -1.149994 154.442380 -3.026461 -1.288300 0.000002 -0.000005 0.675544 73.597098 7.235139 0.770447 25.456935 -7.345402 0.000006 -11.957915 178.484591 1.249057 -0.000004 -0.000004 -0.933535 -24.010646 1.104567 1.180372 -0.000003 -0.000003 -0.493315 75.551816 -5.867191 -4.776945 25.456938 7.347071 -0.000007 
49.710098 -9.638391 86.555908 -0.642220 -1.463170 1.762799 -1.704094 -1.187315 1.019639 0.615976 -2.396333 2.016506 2.261208 -2.372054 2.045115 6.874546 15.857203 -5.162362 9.039094 -13.165809 -5.066193 -12.756889 -52.589888 -14.782235 -60.176740 -112.110882 -34.487097 -0.000001 -0.000001 -0.000002 4.748135 -12.417768 -0.003512 -0.000004 0.000008 -3.009740 -5.000229 -7.998724 0.000168 -21.691733 71.103827 25.389616 -75.733438 114.833252 45.962269 -0.000009 0.000005 0.000010 8.691364 12.252243 -1.259414 0.000003 -0.000035 3.007152 -5.000191 7.998712 -0.000170 -15.911453 -178.067908 -2.080117 -179.999991 -0.000005 -1.148997 154.442817 -3.025572 -1.287849 0.000000 -0.000005 0.676046 73.592877 7.234997 0.771399 25.456930 -7.345402 0.000005 -11.969793 178.489563 1.251697 -0.000004 -0.000004 -0.933472 -24.007369 1.107556 1.180102 -0.000005 -0.000003 -0.493315 75.551564 -5.868186 -4.772586 25.456931 7.347069 -0.000007 
